<?xml version="1.0" encoding="UTF-8"?>
<svg width="16px" height="16px" viewBox="0 0 16 16" version="1.1" xmlns="http://www.w3.org/2000/svg" xmlns:xlink="http://www.w3.org/1999/xlink">
    <!-- Generator: Sketch 63.1 (92452) - https://sketch.com -->
    <title>添加资产-icon@3x</title>
    <desc>Created with Sketch.</desc>
    <g id="B1-账户资产" stroke="none" stroke-width="1" fill="none" fill-rule="evenodd">
        <g id="账户资产" transform="translate(-1747.000000, -397.000000)" fill="#00A0FF">
            <g id="表单标题" transform="translate(360.000000, 385.000000)">
                <g id="币种" transform="translate(1387.000000, 8.000000)">
                    <g id="添加资产-icon" transform="translate(0.500000, 4.500000)">
                        <g id="添加" transform="translate(0.454545, 0.454545)">
                            <path d="M9.625,0 C12.0412458,0 14,1.95875422 14,4.375 L14,9.625 C14,12.0412458 12.0412458,14 9.625,14 L4.375,14 C1.95875422,14 0,12.0412458 0,9.625 L0,4.375 C0,1.95875422 1.95875422,0 4.375,0 L9.625,0 Z M9.625,1.575 L4.375,1.575 C2.88192675,1.575 1.66180351,2.74363795 1.57943243,4.21611171 L1.575,4.375 L1.575,9.625 C1.575,11.1180733 2.74363795,12.3381965 4.21611171,12.4205676 L4.375,12.425 L9.625,12.425 C11.1180733,12.425 12.3381965,11.256362 12.4205676,9.78388829 L12.425,9.625 L12.425,4.375 C12.425,2.88192675 11.256362,1.66180351 9.78388829,1.57943243 L9.625,1.575 Z" id="矩形" fill-rule="nonzero"></path>
                            <g id="编组-3" transform="translate(2.745455, 2.145455)">
                                <path d="M1.18181818,4.09090909 L7.89090909,4.09090909 C8.2975915,4.09090909 8.62727273,4.42059032 8.62727273,4.82727273 C8.62727273,5.23395513 8.2975915,5.56363636 7.89090909,5.56363636 L1.18181818,5.56363636 C0.775135775,5.56363636 0.445454545,5.23395513 0.445454545,4.82727273 C0.445454545,4.42059032 0.775135775,4.09090909 1.18181818,4.09090909 Z" id="矩形" transform="translate(4.536364, 4.827273) rotate(-90.000000) translate(-4.536364, -4.827273) "></path>
                                <rect id="矩形" transform="translate(4.390909, 4.827273) rotate(-180.000000) translate(-4.390909, -4.827273) " x="0.3" y="4.09090909" width="8.18181818" height="1.47272727" rx="0.736363636"></rect>
                            </g>
                        </g>
                    </g>
                </g>
            </g>
        </g>
    </g>
</svg>
