<?xml version="1.0" encoding="UTF-8"?>
<svg width="14px" height="14px" viewBox="0 0 14 14" version="1.1" xmlns="http://www.w3.org/2000/svg" xmlns:xlink="http://www.w3.org/1999/xlink">
    <title>icon goto</title>
    <g id="icon-goto" stroke="none" stroke-width="1" fill="none" fill-rule="evenodd">
        <g id="icon_goto" transform="translate(1.000000, 1.000000)" fill="#00A0FF" fill-rule="nonzero">
            <path d="M10.4179861,12 L1.58204859,12 C0.710173594,12 1.734375e-05,11.2898437 1.734375e-05,10.4179688 L1.734375e-05,8.8125 C1.734375e-05,8.52070313 0.235564219,8.28515625 0.527361094,8.28515625 C0.819157969,8.28515625 1.05470484,8.52070313 1.05470484,8.8125 L1.05470484,10.4179688 C1.05470484,10.7085937 1.29142359,10.9453125 1.58204859,10.9453125 L10.4179861,10.9453125 C10.7086111,10.9453125 10.9453298,10.7085937 10.9453298,10.4179688 L10.9453298,1.58203125 C10.9453298,1.29140625 10.7086111,1.0546875 10.4179861,1.0546875 L1.58204859,1.0546875 C1.29142359,1.0546875 1.05470484,1.29140625 1.05470484,1.58203125 L1.05470484,3.1875 C1.05470484,3.47929687 0.819157969,3.71484375 0.527361094,3.71484375 C0.235564219,3.71484375 1.734375e-05,3.47929687 1.734375e-05,3.1875 L1.734375e-05,1.58203125 C1.734375e-05,0.71015625 0.710173594,0 1.58204859,0 L10.4179861,0 C11.2898611,0 12.0000173,0.71015625 12.0000173,1.58203125 L12.0000173,10.4179688 C12.0000173,11.2898437 11.2898611,12 10.4179861,12 Z" id="路径"></path>
            <path d="M0.527361094,6.5390625 C0.237907969,6.5390625 0.00236109375,6.3046875 3.4846272e-09,6.01523437 C-0.00232640625,5.7234375 0.233220469,5.48671875 0.523845469,5.484375 L6.60470484,5.44570312 L5.07306422,3.91523437 C4.86681422,3.70898437 4.86681422,3.375 5.07306422,3.16992187 C5.27931422,2.96367187 5.61329859,2.96367187 5.81837672,3.16992187 L8.24181422,5.59335937 C8.39181422,5.74335937 8.43751734,5.96953125 8.35665797,6.16640625 C8.27579859,6.36328125 8.08478297,6.4921875 7.87267359,6.49335937 L0.530876719,6.54023437 C0.529704844,6.5390625 0.528532969,6.5390625 0.527361094,6.5390625 L0.527361094,6.5390625 Z" id="路径"></path>
            <path d="M5.44689234,8.9625 C5.31212672,8.9625 5.17736109,8.9109375 5.07423609,8.8078125 C4.86798609,8.6015625 4.86798609,8.26757812 5.07423609,8.0625 L7.49884547,5.63671875 C7.70509547,5.43046875 8.03907984,5.43046875 8.24415797,5.63671875 C8.45040797,5.84296875 8.45040797,6.17695312 8.24415797,6.38203125 L5.81954859,8.8078125 C5.71642359,8.9109375 5.58165797,8.9625 5.44689234,8.9625 Z" id="路径"></path>
        </g>
    </g>
</svg>