<?xml version="1.0" encoding="UTF-8"?>
<svg width="14px" height="14px" viewBox="0 0 14 14" version="1.1" xmlns="http://www.w3.org/2000/svg" xmlns:xlink="http://www.w3.org/1999/xlink">
    <title>icon_goto</title>
    <g id="icon_goto" stroke="none" stroke-width="1" fill="none" fill-rule="evenodd">
        <g transform="translate(8.385760, 5.708372) rotate(180.000000) translate(-8.385760, -5.708372) translate(0.999983, -1.583255)" fill="#00A0FF" fill-rule="nonzero">
            <path d="M13.1895225,12 L10.6717003,12 C9.79982528,12 9.527701,11.9953613 9.31938801,11.9882202 C8.71837483,11.9853821 8.71425496,10.9390869 9.35466633,10.9425049 C9.555472,10.9449768 10.3810753,10.9453125 10.6717003,10.9453125 L13.1895225,10.9453125 C13.4801475,10.9453125 13.7168663,10.7085937 13.7168663,10.4179687 L13.7168663,1.58203125 C13.7168663,1.29140625 13.4801475,1.0546875 13.1895225,1.0546875 L4.35358505,1.0546875 C4.06296005,1.0546875 3.8262413,1.29140625 3.8262413,1.58203125 L3.8262413,5.1875 C3.8262413,5.47929687 3.59069442,5.71484375 3.29889755,5.71484375 C3.00710067,5.71484375 2.7715538,5.47929687 2.7715538,5.1875 L2.7715538,1.58203125 C2.7715538,0.71015625 3.48171005,0 4.35358505,0 L13.1895225,0 C14.0613975,0 14.7715538,0.71015625 14.7715538,1.58203125 L14.7715538,10.4179687 C14.7715538,11.2898437 14.0613975,12 13.1895225,12 Z" id="路径"></path>
            <path d="M9.96267041,4.04415914 L13.0932147,7.17470342 C13.1897664,7.27125515 13.2431057,7.39936652 13.2472945,7.53091012 C13.2644286,7.68531661 13.2140041,7.84560259 13.0955584,7.9633753 L9.96384229,11.0962633 C9.86071729,11.1993883 9.72595166,11.2509508 9.59118604,11.2509508 C9.45642041,11.2509508 9.32165479,11.1993883 9.21852979,11.0962633 C9.01227979,10.8900133 9.01227979,10.556029 9.21852979,10.3509508 L11.4758417,8.09147164 L1.30675236,8.23360713 C1.01378361,8.23243525 0.778236737,7.99806025 0.775858561,7.70860713 C0.773549237,7.41681025 1.00909611,7.1800915 1.29972111,7.17774775 L11.4561053,7.02704717 L9.21735791,4.78947164 C9.01110791,4.58322164 9.01110791,4.24923727 9.21735791,4.04415914 C9.42360791,3.83790914 9.75759229,3.83790914 9.96267041,4.04415914 Z" id="路径-2" transform="translate(7.013044, 7.570211) scale(-1, -1) rotate(-45.000000) translate(-7.013044, -7.570211) "></path>
        </g>
    </g>
</svg>