<?xml version="1.0" encoding="UTF-8"?>
<svg width="20px" height="20px" viewBox="0 0 20 20" version="1.1" xmlns="http://www.w3.org/2000/svg" xmlns:xlink="http://www.w3.org/1999/xlink">
    <title>转换@3x</title>
    <g id="首页-深" stroke="none" stroke-width="1" fill="none" fill-rule="evenodd">
        <g id="首页-1" transform="translate(-140.000000, -139.000000)" fill="#A1A4B1" fill-rule="nonzero">
            <g id="币种" transform="translate(15.000000, 95.000000)">
                <g id="编组-10" transform="translate(94.000000, 13.000000)">
                    <g id="转换" transform="translate(31.000000, 31.000000)">
                        <g id="编组-3" transform="translate(1.600000, 4.285714)">
                            <path d="M0.893275962,3.67991654 C0.893275962,4.14837541 1.29468705,4.53165995 1.78530061,4.53165995 L14.8575565,4.53165995 C15.2143664,4.53165995 15.5488756,4.32937089 15.6826793,4.00996711 C15.816483,3.69056333 15.7495812,3.32857238 15.4931241,3.08369615 L12.6163446,0.336823643 C12.2706851,0.00677307122 11.7020193,0.00677307122 11.3563598,0.336823643 C11.0107002,0.666874216 11.0107002,1.20986064 11.3563598,1.53991121 L12.7166974,2.83881992 L1.79645092,2.83881992 C1.29468705,2.82817312 0.893275962,3.21145766 0.893275962,3.67991654 Z M14.8575565,6.52678571 L1.78530061,6.52678571 C1.42849075,6.52678571 1.09398151,6.72907477 0.96017781,7.04847855 C0.826374113,7.36788233 0.893275962,7.72987328 1.14973305,7.97474952 L4.02651253,10.721622 C4.20491746,10.8919707 4.42792362,10.9664983 4.66208009,10.9664983 C4.89623656,10.9664983 5.11924273,10.8813239 5.29764765,10.721622 C5.6433072,10.3915714 5.6433072,9.84858502 5.29764765,9.51853445 L3.93731007,8.21962575 L14.8575565,8.21962575 C15.3481701,8.23027254 15.7495812,7.846988 15.7495812,7.37852913 C15.7495812,6.91007025 15.3481701,6.52678571 14.8575565,6.52678571 Z" id="形状"></path>
                        </g>
                    </g>
                </g>
            </g>
        </g>
    </g>
</svg>