<?xml version="1.0" encoding="UTF-8"?>
<svg width="70px" height="70px" viewBox="0 0 70 70" version="1.1" xmlns="http://www.w3.org/2000/svg" xmlns:xlink="http://www.w3.org/1999/xlink">
    <title>popup_loading</title>
    <g id="popup_loading" stroke="none" stroke-width="1" fill="none" fill-rule="evenodd" stroke-linecap="round" stroke-linejoin="round">
        <g id="编组-3" transform="translate(5.000000, 5.000000)" stroke-width="6">
            <path d="M29.7896772,0 C14.4294752,0 1.76546967,11.5437891 0,26.4290278" id="形状" stroke="#2F9DFF"></path>
            <path d="M1.64494644,19.5902377 C0.841220138,21.7624747 0.281787337,24.0531887 0,26.4290278" id="形状" stroke="#5BABFF"></path>
            <path d="M0.814346433,37.802439 C1.03774599,38.6341219 1.29599954,39.4515308 1.58744495,40.2530035" id="路径" stroke="#69B2FF" opacity="0.5"></path>
            <path d="M54.5728834,13.0894824 C52.5850943,10.1818924 50.0989617,7.64198856 47.2375048,5.59278993" id="路径" stroke="#69B2FF"></path>
            <path d="M29.7896772,60 C37.0200383,60 43.6529822,57.4421534 48.8329955,53.1819737 C55.5231045,47.6798514 59.7896772,39.3381814 59.7896772,30" id="路径" stroke="#69B2FF"></path>
            <path d="M7.32535339,49.8840312 C8.98750795,51.7604785 10.8811559,53.4271608 12.9615555,54.8393364 C14.0802386,55.5986986 15.2529206,56.2844706 16.4726449,56.8896959 C17.4453887,57.3723698 18.4480526,57.8038141 19.477108,58.1805001" id="路径" stroke="#69B2FF" opacity="0.655668713"></path>
        </g>
    </g>
</svg>