<svg width="19" height="24" viewBox="0 0 19 24" fill="none" xmlns="http://www.w3.org/2000/svg">
<path d="M15.629 24H3.37097C1.51142 24 0 22.4825 0 20.6154V3.38462C0 1.51754 1.51142 0 3.37097 0H15.629C17.4886 0 19 1.51754 19 3.38462V20.6154C19 22.4825 17.4886 24 15.629 24ZM3.37097 1.84615C2.52639 1.84615 1.83871 2.53662 1.83871 3.38462V20.6154C1.83871 21.4634 2.52639 22.1538 3.37097 22.1538H15.629C16.4736 22.1538 17.1613 21.4634 17.1613 20.6154V3.38462C17.1613 2.53662 16.4736 1.84615 15.629 1.84615H3.37097ZM15.3226 5.84615C15.3226 5.33662 14.9107 4.92308 14.4032 4.92308H4.59677C4.08929 4.92308 3.67742 5.33662 3.67742 5.84615C3.67742 6.35569 4.08929 6.76923 4.59677 6.76923H14.4032C14.9107 6.76923 15.3226 6.35569 15.3226 5.84615ZM15.3226 9.53846C15.3226 9.02892 14.9107 8.61539 14.4032 8.61539H4.59677C4.08929 8.61539 3.67742 9.02892 3.67742 9.53846C3.67742 10.048 4.08929 10.4615 4.59677 10.4615H14.4032C14.9107 10.4615 15.3226 10.048 15.3226 9.53846ZM15.3226 13.2308C15.3226 12.7212 14.9107 12.3077 14.4032 12.3077H4.59677C4.08929 12.3077 3.67742 12.7212 3.67742 13.2308C3.67742 13.7403 4.08929 14.1538 4.59677 14.1538H14.4032C14.9107 14.1538 15.3226 13.7403 15.3226 13.2308ZM15.0603 19.4511C15.4145 19.0868 15.4084 18.5022 15.0455 18.1452L13.8798 16.9982C13.1786 16.3065 12.0632 16.2917 11.3399 16.9674L10.7344 17.536L10.157 16.9822C9.44606 16.2991 8.32936 16.2991 7.61594 16.9822L6.41342 18.1366C6.0469 18.4886 6.03342 19.0732 6.38523 19.4412C6.73703 19.8105 7.31807 19.8228 7.68581 19.4708L8.88832 18.3163L9.46445 18.8689C10.1693 19.5446 11.2774 19.552 11.9896 18.8849L12.5964 18.3163L13.7621 19.4634C13.9411 19.6394 14.1728 19.7268 14.4045 19.7268C14.6423 19.7268 14.8813 19.6345 15.0615 19.4498L15.0603 19.4511Z" fill="white"/>
</svg>
